<svg xmlns="http://www.w3.org/2000/svg" xmlns:xlink="http://www.w3.org/1999/xlink" version="1.1" width="256" height="256" viewBox="0 0 256 256" xml:space="preserve">

<defs>
</defs>
<g style="stroke: none; stroke-width: 0; stroke-dasharray: none; stroke-linecap: butt; stroke-linejoin: miter; stroke-miterlimit: 10; fill: none; fill-rule: nonzero; opacity: 1;" transform="translate(1.4065934065934016 1.4065934065934016) scale(2.81 2.81)" >
	<path d="M 77.689 86.203 c 0 2.097 -1.7 3.797 -3.797 3.797 H 22.176 c -5.448 0 -9.865 -4.417 -9.865 -9.865 v 0 c 0 -5.448 4.417 -9.865 9.865 -9.865 l 55.513 -10.227 V 86.203 z" style="stroke: none; stroke-width: 1; stroke-dasharray: none; stroke-linecap: butt; stroke-linejoin: miter; stroke-miterlimit: 10; fill: rgb(255,243,201); fill-rule: nonzero; opacity: 1;" transform=" matrix(1 0 0 1 0 0) " stroke-linecap="round" />
	<path d="M 73.892 70.271 L 73.892 70.271 c 2.097 0 3.797 -1.7 3.797 -3.797 V 3.797 C 77.689 1.7 75.989 0 73.892 0 H 22.322 c -5.529 0 -10.01 4.482 -10.01 10.01 v 70.125 c 0.94 -6.212 4.11 -9.647 9.865 -9.865 H 73.892 z" style="stroke: none; stroke-width: 1; stroke-dasharray: none; stroke-linecap: butt; stroke-linejoin: miter; stroke-miterlimit: 10; fill: rgb(161,93,48); fill-rule: nonzero; opacity: 1;" transform=" matrix(1 0 0 1 0 0) " stroke-linecap="round" />
	<path d="M 62.308 23.537 h -8.908 c -0.491 0 -0.889 -0.398 -0.889 -0.889 V 15.65 c 0 -0.491 -0.398 -0.889 -0.889 -0.889 h -7.673 c -0.491 0 -0.889 0.398 -0.889 0.889 v 6.998 c 0 0.491 -0.398 0.889 -0.889 0.889 h -8.34 c -0.491 0 -0.889 0.398 -0.889 0.889 V 32.1 c 0 0.491 0.398 0.889 0.889 0.889 h 8.34 c 0.491 0 0.889 0.398 0.889 0.889 v 16.208 c 0 0.491 0.398 0.889 0.889 0.889 h 7.673 c 0.491 0 0.889 -0.398 0.889 -0.889 V 33.879 c 0 -0.491 0.398 -0.889 0.889 -0.889 h 8.908 c 0.491 0 0.889 -0.398 0.889 -0.889 v -7.673 C 63.197 23.936 62.799 23.537 62.308 23.537 z" style="stroke: none; stroke-width: 1; stroke-dasharray: none; stroke-linecap: butt; stroke-linejoin: miter; stroke-miterlimit: 10; fill: rgb(255,219,153); fill-rule: nonzero; opacity: 1;" transform=" matrix(1 0 0 1 0 0) " stroke-linecap="round" />
	<path d="M 75.682 73.999 H 21.375 c -0.565 0 -1.023 0.457 -1.023 1.023 c 0 0.565 0.458 1.023 1.023 1.023 h 54.307 V 73.999 z" style="stroke: none; stroke-width: 1; stroke-dasharray: none; stroke-linecap: butt; stroke-linejoin: miter; stroke-miterlimit: 10; fill: rgb(255,219,153); fill-rule: nonzero; opacity: 1;" transform=" matrix(1 0 0 1 0 0) " stroke-linecap="round" />
	<path d="M 21.337 0.05 c -5.066 0.495 -9.026 4.764 -9.026 9.961 v 70.125 c 0.893 -5.901 3.803 -9.291 9.026 -9.802 V 0.05 z" style="stroke: none; stroke-width: 1; stroke-dasharray: none; stroke-linecap: butt; stroke-linejoin: miter; stroke-miterlimit: 10; fill: rgb(130,75,39); fill-rule: nonzero; opacity: 1;" transform=" matrix(1 0 0 1 0 0) " stroke-linecap="round" />
	<path d="M 75.682 84.226 H 21.375 c -0.565 0 -1.023 0.457 -1.023 1.023 c 0 0.565 0.458 1.023 1.023 1.023 h 54.307 V 84.226 z" style="stroke: none; stroke-width: 1; stroke-dasharray: none; stroke-linecap: butt; stroke-linejoin: miter; stroke-miterlimit: 10; fill: rgb(255,219,153); fill-rule: nonzero; opacity: 1;" transform=" matrix(1 0 0 1 0 0) " stroke-linecap="round" />
	<path d="M 75.682 79.113 H 17.284 c -0.565 0 -1.023 0.457 -1.023 1.023 c 0 0.565 0.458 1.023 1.023 1.023 h 58.398 V 79.113 z" style="stroke: none; stroke-width: 1; stroke-dasharray: none; stroke-linecap: butt; stroke-linejoin: miter; stroke-miterlimit: 10; fill: rgb(255,219,153); fill-rule: nonzero; opacity: 1;" transform=" matrix(1 0 0 1 0 0) " stroke-linecap="round" />
</g>
</svg>